# xmcd
#
# Track frame offsets:
#	150
#	12469
#	24348
#	32785
#	43765
#	56291
#	70846
#	78110
#	90426
#	102258
#	116230
#	128579
#	145477
#	164059
#	175736
#	195517
#	208118
#	220432
#	232377
#
# Disc length: 3326
#
# Revision: 2
# Processed by: cddbd v1.5.1PL0 Copyright (c) Steve Scherf et al.
# Submitted via: EasyCDDAExtractor 5.1.0
# Normalized: r1:DSETVAR1
#
DISCID=100cfc13
DTITLE=Various Artist - Ralph Emery's Country Homecoming
DYEAR=2000
DGENRE=Country
TTITLE0=Willie Nelson - Blue Skies
TTITLE1=Bobby Bare - Four Strong Winds
TTITLE2=Kris Kristofferson - Jesus Was A Capricorn
TTITLE3=Kris Kristofferson - The Pilgrim, Chapter 33
TTITLE4=Gene Watson - Cowboys Don't Get Lucky All The Time
TTITLE5=Crystal Gayle - Cry
TTITLE6=Bill Joe Shaver - I Couldn't Be Me Without You
TTITLE7=Glen Campbell - Southern Nights
TTITLE8=Janie Fricke - Today I Started Loving You Again
TTITLE9=B.J. Thomas - New Looks From An Old Lover
TTITLE10=Lorrie Morgan - Ballad Of The Grand Old Opry
TTITLE11=Willie Nelson - Night Life
TTITLE12=Kris Kristofferson - To Beat The Devil
TTITLE13=George Lindsey - That There's Big With Me
TTITLE14=Lorrie Morgan - Secret Love
TTITLE15=Geezininslaws - Copenhagen
TTITLE16=Mickey Gilley - Honky Tonk Wione
TTITLE17=Billy Joe Shaver - Old Five And Dimes Like Me
TTITLE18=Kris Kristofferson - Shipwrecked In The Eighties
EXTD=___________________________________\nTotal disc time:  (19)   55:24\n© 2000 Coming Home Music\nCatalog:  6 1788 42274 2 5  SHD2274\n¯¯¯¯¯¯¯¯¯¯¯¯¯¯¯¯¯¯¯¯¯¯¯¯¯¯¯¯¯¯¯¯¯¯¯\n    www.allmusic.com  data \nN
EXTD=OT Submitted freedb 04/06/04\nprepaid@homemail.com\n      - _________________\n        www.allmusic.com\n           R E V I E W\n     ¯¯¯¯¯¯¯¯¯¯¯¯¯¯¯¯¯¯\n\nhttp://www.allmusic.com/cg/amg.dll?p=amg&uid=UIDMISS7031106235
EXTD=0592921&sql=A8uq4g4e9tvjz\n\nRalph Emery's Country Homecoming \nArtist  Various Artists \nAlbum Title  Ralph Emery's Country Homecoming \nDate of Release  Sep 26, 2000 \nGenre  Country \nStyles  Traditional Country, Progressive Country
EXTD=, Country-Pop, Honky Tonk, Nashville Sound/Countrypolitan, Outlaw Country \n  \n \n   1.    Blue Skies  performed by Willie Nelson - 2:44 \n   2.    Four Strong Winds  performed by Bobby Bare - 2:38 \n   3.    Jesus Was a Capricorn  pe
EXTD=rformed by Kris Kristofferson - 1:52 \n   4.    The Pilgrim, Chapter 33  performed by Kris Kristofferson - 2:26 \n   5.    Cowboys Don't Get Lucky All the Time  performed by Gene Watson - 2:47 \n   6.    Cry  performed by Crystal Gayle
EXTD=3:14 \n   7.    I Couldn't Be Me Without You  performed by Shaver, Billy Joe - 1:36 \n   8.    Southern Nights  performed by Glen Campbell - 2:44 \n   9.    Today I Started Loving You Again  performed by Janie Fricke - 2:37 \n   10.
EXTD=New Looks from an Old Lover  performed by B.J. Thomas - 3:06 \n   11.    Ballad of the Grand Ole Opry  performed by Lorrie Morgan - 2:44 \n   12.    Night Life  performed by Willie Nelson - 3:45 \n review     13.    To Beat the Dev
EXTD=il  performed by Kris Kristofferson - 4:07 \n   14.    That There's Big With Me  performed by George Lindsey - 2:35 \n   15.    Secret Love  performed by Lorrie Morgan - 4:23 \n   16.    Copenhagen  performed by Geezinslaws - 2:48 \n  
EXTD=17.    Honky Tonk Wine  performed by Mickey Gilley - 2:44 \n   18.    Old Five and Dimers Like Me  performed by Shaver, Billy Joe - 2:39 \n   19.    Shipwrecked in the Eighties  performed by Kris Kristofferson - 3:48 \n \n \n   Origin
EXTD=al Soundtrack: Coal Miner's Daughter  \n   Johnny Cash: Essential Johnny Cash 1955-1983  \n   Bobby Bare: Detroit City and Other Hits  \n \nBobby Bare  -  Performer \nCrystal Gayle  -  Performer \nThe Geezinslaws  -  Performer \nMickey
EXTD=Gilley  -  Performer \nKris Kristofferson  -  Performer \nLorrie Morgan  -  Performer \nWillie Nelson  -  Performer \nGene Watson  -  Performer \nBill Carter  -  Executive Producer \nBilly Joe Shaver  -  Performer \nJanie Fricke  -  P
EXTD=erformer \nB.J. Thomas  -  Performer \nRuss Harrington  -  Photography \nChad Evans  -  Mixing Engineer \nGeorge Lindsey  -  Performer \nBarry Jennings  -  Executive Producer \nJenny Fultz  -  Graphic Design \n \n 2000 CS Chordant 4227
EXTD=4 \n 2000 CD Chordant 42274 \n
EXTT0=
EXTT1=
EXTT2=
EXTT3=
EXTT4=
EXTT5=
EXTT6=
EXTT7=
EXTT8=
EXTT9=
EXTT10=
EXTT11=
EXTT12=
EXTT13=
EXTT14=
EXTT15=
EXTT16=
EXTT17=
EXTT18=
PLAYORDER=
